<?xml version="1.0" encoding="utf-8"?>
<!-- Generator: Adobe Illustrator 16.0.3, SVG Export Plug-In . SVG Version: 6.00 Build 0)  -->
<!DOCTYPE svg PUBLIC "-//W3C//DTD SVG 1.1//EN" "http://www.w3.org/Graphics/SVG/1.1/DTD/svg11.dtd">
<svg version="1.1" id="Layer_1" xmlns="http://www.w3.org/2000/svg" xmlns:xlink="http://www.w3.org/1999/xlink" x="0px" y="0px"
	 width="32px" height="32px" viewBox="0 0 32 32" enable-background="new 0 0 32 32" xml:space="preserve">
<path fill="none" stroke="#AC0000" stroke-width="1.5" stroke-linecap="round" stroke-linejoin="round" stroke-miterlimit="10" d="
	M28.422,8.987c-0.7-1.047-1.697-2.052-2.772-2.701c-1.212-0.731-2.722-1.28-4.084-1.629c-1.552-0.397-3.295-0.708-4.9-0.725
	C14.31,3.907,11.491,3.63,9.411,5.008c-2.732,1.808-5.303,4.567-5.8,7.891c-0.115,0.771-0.437,1.497-0.561,2.272
	c-0.118,0.737-0.097,1.467-0.097,2.211c0,1.454,0.071,2.82,0.637,4.18c0.47,1.131,0.914,2.206,1.791,3.095
	c1.145,1.161,2.499,1.807,3.99,2.413c1.421,0.578,3.083,0.693,4.595,0.932c1.025,0.162,2.124,0.094,3.161,0.081
	c1.092-0.013,2.298-0.305,3.369-0.541c1.623-0.358,2.813-1.386,4.138-2.306c1.299-0.903,2.239-1.933,2.868-3.384
	c0.551-1.274,0.921-2.635,1.133-4.006c0.213-1.381,0.624-2.976,0.29-4.373c-0.394-1.644-1.453-3.243-2.454-4.572
	c-0.935-1.241-1.972-2.314-3.41-2.958c-1.164-0.521-2.238-0.813-3.492-1.009c-1.257-0.196-2.503-0.45-3.761-0.626
	c-1.294-0.181-2.29-0.076-3.522,0.358c-1.239,0.436-2.362,1.098-3.409,1.888C7.718,7.425,6.773,8.753,6.039,9.996
	c-0.69,1.167-1.164,2.467-1.704,3.708c-0.484,1.113-0.791,2.46-0.598,3.689c0.147,0.941,0.711,2.036,1.156,2.872
	c0.624,1.174,1.525,2.13,2.559,2.944c0.763,0.602,1.627,1.065,2.507,1.47c1.2,0.552,2.458,1.068,3.762,1.271
	c2.705,0.419,5.566,1.334,8.13-0.077c1.099-0.605,2.376-1.063,3.202-2.04c0.777-0.919,1.231-1.822,1.27-3.051
	c0.04-1.289,0.331-2.521,0.18-3.825c-0.167-1.442-0.309-3.252-0.954-4.567c-0.561-1.141-1.426-2.154-2.241-3.115
	c-0.87-1.026-1.557-2.007-2.738-2.719c-1.09-0.656-2.16-0.852-3.413-0.849c-1.439,0.003-2.64,0.032-3.977,0.628
	c-1.232,0.549-2.271,1.107-3.353,1.925C9.32,8.641,8.697,9.031,8.376,9.595c-0.283,0.498-0.465,1.129-0.56,1.688
	c-0.513,3.018,0.47,5.755,2.316,8.134c1.73,2.231,3.651,4.238,6.565,4.61c1.172,0.149,2.377,0.162,3.455-0.384
	c1.224-0.62,2.307-1.826,2.92-3.042c0.539-1.067,0.651-2.572,0.602-3.757c-0.062-1.469-0.341-3.295-1.17-4.524
	c-0.786-1.165-1.81-2.409-2.98-3.196c-1.196-0.803-2.57-0.747-3.972-0.684c-2.977,0.134-5.422,2.431-6.534,5.062
	c-0.497,1.175-0.76,2.474-0.54,3.749c0.186,1.072,0.96,2.155,1.733,2.906c1.929,1.874,5.101,2.854,7.703,2.028
	c1.313-0.416,2.556-1.137,3.503-2.143c0.767-0.813,1.472-2.125,1.517-3.26c0.106-2.66-1.067-5.262-3.303-6.743
	c-1.196-0.792-2.662-0.843-4.053-0.745c-1.42,0.101-2.806,0.633-3.886,1.577c-0.787,0.688-1.416,2.222-1.59,3.229
	c-0.222,1.285-0.003,2.776,0.751,3.848c1.469,2.089,4.26,3.07,6.777,2.534c1.384-0.294,2.439-0.822,3.479-1.802
	c0.882-0.83,1.301-2.275,1.338-3.469c0.033-1.088-0.552-2.476-1.322-3.25c-1.057-1.064-2.749-1.4-4.184-1.395
	c-0.934,0.004-1.804,0.219-2.675,0.545c-0.744,0.279-1.568,0.53-2.135,1.104c-0.883,0.896-1.175,2.434-1.022,3.653
	c0.148,1.185,1.029,2.218,1.969,2.885c1.074,0.763,2.961,0.8,4.197,0.423c1.282-0.391,2.099-1.343,2.747-2.474
	c0.645-1.127,1.348-2.832,0.067-3.804c-0.956-0.726-2.33-0.779-3.45-0.487c-1.215,0.316-1.959,1.265-2.155,2.51
	c-0.195,1.241,0.541,2.066,1.682,2.397c0.974,0.283,2.343-0.072,2.456-1.262c0.048-0.5-0.512-1.554-1.148-1.398
	c-0.26,0.063-0.718,0.514-0.735,0.778"/>
</svg>
